<?xml version="1.0" encoding="UTF-8"?>
<svg version="1.1" xmlns="http://www.w3.org/2000/svg" width="1280" height="392">
<path d="M0 0 C1.1014183 -0.00945648 2.20283661 -0.01891296 3.33763123 -0.02865601 C4.51793411 -0.02258331 5.698237 -0.01651062 6.91430664 -0.01025391 C8.74681725 -0.01455917 8.74681725 -0.01455917 10.61634827 -0.01895142 C13.19768742 -0.02099121 15.77904205 -0.01546734 18.36035156 -0.00292969 C22.30642379 0.01311027 26.25146958 -0.0027753 30.19750977 -0.02197266 C32.70727765 -0.01998994 35.21704489 -0.01614568 37.72680664 -0.01025391 C38.9050853 -0.0163266 40.08336395 -0.02239929 41.29734802 -0.02865601 C51.85876246 0.06176269 51.85876246 0.06176269 56.38696289 3.38818359 C57.83154297 5.29296875 57.83154297 5.29296875 58.84399414 7.55224609 C59.24956543 8.44588867 59.65513672 9.33953125 60.07299805 10.26025391 C60.72341064 11.8085791 60.72341064 11.8085791 61.38696289 13.38818359 C61.88373535 14.56735352 62.38050781 15.74652344 62.89233398 16.96142578 C64.33911142 20.44453083 65.74766021 23.94225349 67.14755249 27.44442749 C68.77108862 31.50586029 70.40842988 35.56173678 72.04321289 39.61865234 C72.3885759 40.47689102 72.7339389 41.3351297 73.08976746 42.21937561 C77.37340766 52.85634442 81.72556646 63.46527076 86.07446289 74.07568359 C87.22158227 76.87459641 88.36859473 79.67355263 89.51513672 82.47270203 C90.2005172 84.14589475 90.88627245 85.81893403 91.57250977 87.49177551 C93.87485308 93.11168415 96.13882168 98.74638421 98.38696289 104.38818359 C100.54753973 102.22760675 100.31488669 97.72971426 100.73803711 94.7409668 C100.86991425 93.83362289 101.00179138 92.92627899 101.13766479 91.99143982 C101.42476156 90.01368756 101.71003761 88.03567037 101.99374008 86.05742836 C102.44357961 82.92553316 102.89955644 79.79459096 103.35745239 76.66386414 C104.65906143 67.75960193 105.95279971 58.85422516 107.23413086 49.94702148 C108.0174919 44.50457358 108.81093488 39.06367436 109.61072159 33.62361717 C109.91356459 31.54978023 110.21255204 29.47537643 110.50759506 27.40041542 C110.92129362 24.4929316 111.34776853 21.58758364 111.77709961 18.68237305 C111.89565308 17.82654633 112.01420654 16.9707196 112.13635254 16.08895874 C113.00463057 10.33969236 113.9379888 5.33263321 118.71791077 1.53744507 C121.7211864 0.244271 123.82946465 0.00791792 127.09179688 0 C128.77395546 -0.01418472 128.77395546 -0.01418472 130.49009705 -0.02865601 C131.69227371 -0.02258331 132.89445038 -0.01651062 134.13305664 -0.01025391 C135.99886131 -0.01455917 135.99886131 -0.01455917 137.90235901 -0.01895142 C141.20292957 -0.02151302 144.50307477 -0.00946314 147.80358887 0.00732422 C149.82118278 0.01317408 151.83838471 0.00734969 153.85595703 -0.00292969 C157.74017424 -0.021486 161.62381509 -0.01920975 165.50805664 -0.01025391 C166.70820908 -0.0163266 167.90836151 -0.02239929 169.1448822 -0.02865601 C179.91346728 0.06189506 179.91346728 0.06189506 184.38696289 3.38818359 C188.3955534 9.92613494 186.27884217 18.43880318 185.18557739 25.64134216 C185.05631485 26.52810719 184.9270523 27.41487222 184.79387271 28.32850891 C184.36246821 31.27699452 183.92185109 34.22402567 183.48120117 37.17114258 C183.16862912 39.29406783 182.85662194 41.41707632 182.5451355 43.54016113 C181.69970531 49.29100176 180.84620337 55.04061797 179.99109507 60.79002643 C179.09613857 66.81584066 178.20816407 72.84268387 177.31930542 78.86940002 C175.82556552 88.99032637 174.32689588 99.11051277 172.82495117 109.23022461 C171.09048716 120.91678563 169.3622697 132.6042562 167.63775456 144.2922892 C165.79929944 156.75242621 163.95691653 169.21197986 162.11303854 181.67131543 C161.58311156 185.25362481 161.05384272 188.83603093 160.52469254 192.41845512 C159.69161028 198.0568834 158.85584076 203.69490725 158.01802444 209.33263397 C157.71159986 211.39722198 157.40602732 213.46193667 157.10138702 215.52678871 C156.684073 218.35423164 156.26358747 221.18118581 155.84231567 224.00804138 C155.72363101 224.81710967 155.60494635 225.62617796 155.48266518 226.45976347 C154.86354806 230.59034983 154.17981581 234.70697335 153.42100334 238.81428623 C153.27171375 239.6280411 153.12242416 240.44179597 152.96861064 241.28021008 C152.1670049 244.18534239 150.80834657 245.64781407 148.38696289 247.38818359 C145.77931961 248.69200523 143.83531461 248.53674607 140.91503906 248.56518555 C139.19766792 248.5844384 139.19766792 248.5844384 137.44560242 248.6040802 C136.20293106 248.61146713 134.9602597 248.61885406 133.67993164 248.62646484 C132.4072493 248.63453659 131.13456696 248.64260834 129.82331848 248.65092468 C127.12566477 248.66477586 124.42813371 248.6757892 121.73046875 248.68334961 C118.2802804 248.69440628 114.8307384 248.72879696 111.38077831 248.76852131 C108.0847269 248.80100333 104.78861872 248.80546794 101.49243164 248.81396484 C100.25583298 248.83147293 99.01923431 248.84898102 97.74516296 248.86701965 C96.59079239 248.86409409 95.43642181 248.86116852 94.24707031 248.8581543 C92.72722786 248.86695366 92.72722786 248.86695366 91.17668152 248.87593079 C87.60000164 248.25059332 85.97184834 246.89560328 83.38696289 244.38818359 C82.18682861 242.6421051 82.18682861 242.6421051 81.36450195 240.83959961 C81.04227661 240.14013214 80.72005127 239.44066467 80.38806152 238.72000122 C78.45666737 234.22128472 76.57752208 229.70605152 74.74633789 225.16552734 C74.30643524 224.08244797 73.86653259 222.99936859 73.41329956 221.88346863 C71.98499869 218.36535769 70.56101619 214.8455157 69.13696289 211.32568359 C67.65786897 207.67999498 66.17761445 204.03477901 64.69729614 200.3895874 C63.70301728 197.9410446 62.7091011 195.4923545 61.71554565 193.04351807 C57.1752767 181.85538368 52.60037211 170.68164618 48.01196289 159.51318359 C47.32803333 157.84774185 46.64411372 156.18229603 45.96020508 154.5168457 C44.4365266 150.80698901 42.91204436 147.09746374 41.38696289 143.38818359 C39.07280755 156.66142269 36.97914084 169.95439096 35.07583618 183.29184723 C34.72898646 185.72058505 34.37996 188.14900065 34.03027344 190.57733154 C32.58625105 200.60563003 32.58625105 200.60563003 31.16870117 210.63769531 C30.58729323 214.79110113 29.99099052 218.94212969 29.38471985 223.09197617 C29.15918992 224.65481714 28.93909988 226.21845396 28.72477722 227.78287125 C28.42643567 229.95585928 28.10910225 232.12529386 27.78735352 234.29492188 C27.61288696 235.52381134 27.43842041 236.75270081 27.25866699 238.01882935 C26.26860768 241.84565606 24.85269418 244.31282773 22.38696289 247.38818359 C19.25968169 248.43061066 17.00879553 248.53979547 13.72558594 248.58105469 C12.56395432 248.59711761 11.40232269 248.61318054 10.20549011 248.62973022 C4.89789361 248.67419368 -0.40955579 248.71567379 -5.71728516 248.73828125 C-8.51774798 248.75161601 -11.31748133 248.77946237 -14.11767578 248.8203125 C-18.15401454 248.87918696 -22.18957255 248.89694904 -26.22631836 248.91162109 C-27.47649246 248.93429047 -28.72666656 248.95695984 -30.01472473 248.98031616 C-39.71047712 248.95671994 -39.71047712 248.95671994 -43.38720703 246.41796875 C-47.71594787 240.5257154 -46.75298863 233.54269054 -45.76187992 226.58526993 C-45.61350398 225.62594433 -45.46512804 224.66661873 -45.31225586 223.67822266 C-45.1606346 222.63749477 -45.00901335 221.59676689 -44.85279751 220.5245018 C-44.34614217 217.06592087 -43.82334935 213.60998104 -43.30053711 210.15380859 C-42.93529401 207.68276337 -42.57106499 205.21156807 -42.20777893 202.74023438 C-41.32795902 196.77286149 -40.43779072 190.80711917 -39.54260176 184.84203959 C-38.50658565 177.93576385 -37.48186354 171.02782799 -36.4580189 164.11973906 C-35.09773986 154.94252035 -33.73496613 145.765679 -32.36497498 136.58990479 C-29.78047438 119.27719469 -27.22733931 101.96033813 -24.70729446 84.63809967 C-23.68547057 77.62092035 -22.65802988 70.60456156 -21.63035011 63.58823776 C-20.82409937 58.08159785 -20.02075511 52.57456834 -19.22412109 47.06652832 C-18.48170198 41.93545889 -17.73012501 36.80581407 -16.9714489 31.67712402 C-16.69760546 29.81487193 -16.42707883 27.9521285 -16.16018867 26.08886719 C-15.79733153 23.55865609 -15.42261873 21.03047352 -15.04492188 18.50244141 C-14.94368515 17.77614155 -14.84244843 17.04984169 -14.73814392 16.30153275 C-13.86872543 10.62049585 -12.88944972 5.25207195 -8.27635193 1.47494507 C-5.3166306 0.26723538 -3.19051491 0.00788607 0 0 Z " fill="#07b075" transform="translate(587.613037109375,71.61181640625)"/>
<path d="M0 0 C19.22059602 17.93387447 30.59358002 44.17682506 31.89038086 70.47143555 C33.26469305 116.3309653 21.76556942 161.08092902 -10.03173828 195.26220703 C-28.05964954 214.23666148 -48.91208493 226.29052123 -74.25 232.625 C-75.1884375 232.85960937 -76.126875 233.09421875 -77.09375 233.3359375 C-102.06770635 238.65446524 -129.62766858 235.37551721 -151.47558594 221.80224609 C-173.65007625 207.09044198 -186.03151026 184.25418434 -191.3515625 158.640625 C-199.27570961 115.3280064 -188.13939127 66.10840647 -163.47192383 29.78466797 C-144.60747145 3.19728594 -117.41409948 -16.67427427 -85.05908203 -22.7890625 C-54.35449017 -27.88728575 -23.3837115 -21.11126702 0 0 Z M-93.25 50.625 C-93.86875 51.16125 -94.4875 51.6975 -95.125 52.25 C-110.75512285 66.7636855 -119.09836169 91.86530796 -120.45458984 112.7800293 C-120.55215112 116.0022753 -120.57932865 119.21385123 -120.5625 122.4375 C-120.55686035 123.57388916 -120.5512207 124.71027832 -120.54541016 125.88110352 C-120.31696544 141.73991639 -117.80885351 155.76032114 -106.05859375 167.28515625 C-99.67448076 172.01463952 -91.78536495 171.45809314 -84.25 170.625 C-68.76999889 165.80125558 -59.47544543 153.35738983 -52.25 139.625 C-40.93219089 116.90009975 -35.11718244 87.2680487 -43.25 62.625 C-46.69174926 53.88504279 -51.07387722 45.65871381 -60 41.6875 C-72.90874119 37.66756319 -83.60273138 42.11270416 -93.25 50.625 Z " fill="#07b075" transform="translate(1177.25,90.375)"/>
<path d="M0 0 C1.14476303 -0.00953201 2.28952606 -0.01906403 3.46897888 -0.02888489 C4.70132767 -0.02797348 5.93367645 -0.02706207 7.20336914 -0.02612305 C8.47322159 -0.03040817 9.74307404 -0.0346933 11.05140686 -0.03910828 C13.73721145 -0.04485204 16.42263179 -0.04628661 19.10839844 -0.04101562 C22.54275331 -0.03522242 25.97656862 -0.05215237 29.41083431 -0.0753603 C32.69584177 -0.09367213 35.98081984 -0.08991168 39.26586914 -0.08862305 C40.4961937 -0.09783279 41.72651825 -0.10704254 42.99412537 -0.11653137 C44.14204056 -0.11030258 45.28995575 -0.10407379 46.47265625 -0.09765625 C47.47985214 -0.09828568 48.48704803 -0.0989151 49.52476501 -0.0995636 C53.5579348 0.4440814 56.17372733 2.22510484 59.11352539 4.9621582 C62.58677328 11.72585146 59.47198758 21.83640292 58.37329102 28.96411133 C58.16585987 30.33824705 57.95898107 31.71246626 57.75260925 33.08676147 C57.30891838 36.03476235 56.86173914 38.98220496 56.41191101 41.92927551 C55.69876147 46.60428697 54.99590239 51.28081039 54.2947998 55.9576416 C52.30011085 69.25303522 50.29187177 82.54636311 48.27319336 95.83813477 C47.1570146 103.18810558 46.04942295 110.53932182 44.95071745 117.89192533 C44.2578226 122.52537601 43.55460084 127.15709513 42.84326935 131.78774929 C42.39979106 134.6914824 41.96633471 137.59665062 41.5354557 140.50227737 C41.24277312 142.45648339 40.93853147 144.40894779 40.63371277 146.36129761 C37.64291435 165.00871958 37.64291435 165.00871958 43.30102539 182.2746582 C47.39661613 186.59778176 52.7364487 189.07046805 58.68774414 189.41137695 C65.65695218 189.02845343 72.93964991 186.6439428 77.96118164 181.6105957 C79.30102539 180.2746582 79.30102539 180.2746582 81.30102539 180.2746582 C81.57043945 179.7074707 81.83985352 179.1402832 82.11743164 178.5559082 C83.76419954 175.3819397 85.77759949 172.46309996 87.76586914 169.4934082 C92.09805876 160.4101404 93.11725171 149.88596174 94.52172852 140.02001953 C94.72364982 138.63377531 94.9261355 137.24761321 95.12913513 135.86152649 C95.56139755 132.90255816 95.98997341 129.94308896 96.41563416 126.98316383 C97.09009691 122.29499759 97.77446486 117.60830889 98.46032715 112.92179871 C100.16127518 101.2888852 101.85010531 89.65421685 103.53509521 78.01898193 C104.847517 68.95709877 106.16361942 59.89578445 107.49107885 50.83609027 C108.1721838 46.18479455 108.84565563 41.53247942 109.513237 36.87922442 C109.93098975 33.97941455 110.35564488 31.08064563 110.78215218 28.18211174 C111.06980644 26.21309496 111.34926106 24.24288565 111.62840271 22.27264404 C114.16991548 5.13815346 114.16991548 5.13815346 118.63197327 1.23641968 C121.59317493 0.16938556 123.85975681 -0.10588957 127.00585938 -0.11352539 C128.68801796 -0.12771011 128.68801796 -0.12771011 130.40415955 -0.1421814 C131.60633621 -0.1361087 132.80851288 -0.13003601 134.04711914 -0.1237793 C135.91292381 -0.12808456 135.91292381 -0.12808456 137.81642151 -0.13247681 C141.11699207 -0.13503841 144.41713727 -0.12298853 147.71765137 -0.10620117 C149.73524528 -0.10035131 151.75244721 -0.1061757 153.77001953 -0.11645508 C157.65423674 -0.13501139 161.53787759 -0.13273514 165.42211914 -0.1237793 C166.62227158 -0.12985199 167.82242401 -0.13592468 169.0589447 -0.1421814 C180.01948706 -0.0500162 180.01948706 -0.0500162 184.30102539 3.2746582 C187.30775394 7.99507457 187.55666745 11.46783577 186.75170898 16.84301758 C186.65134527 17.61197105 186.55098156 18.38092453 186.44757652 19.17317963 C186.08675426 21.87704958 185.69499928 24.57542599 185.30102539 27.2746582 C185.00056539 29.40523555 184.70038889 31.5358529 184.40045166 33.66650391 C183.42696259 40.49934431 182.41420754 47.32607601 181.39331102 54.15197563 C180.98228241 56.90225833 180.57314828 59.65282177 180.16390359 62.40337038 C179.19654823 68.90408019 178.22547576 75.40422733 177.25219727 81.90405273 C176.25673047 88.55263316 175.26853342 95.20226635 174.28374827 101.85243654 C173.42969087 107.61763518 172.57057247 113.38206545 171.70766485 119.14594603 C171.19600597 122.56413794 170.68620519 125.98257795 170.18153763 129.40180969 C164.28676226 169.24288295 155.41268103 206.62998206 121.60180664 232.16137695 C96.59234704 250.0072059 65.46085462 257.51403731 35.06958008 252.9387207 C20.24611767 250.33881141 6.075371 244.75610493 -5.69897461 235.2746582 C-6.83206055 234.40260742 -6.83206055 234.40260742 -7.98803711 233.51293945 C-24.57099221 219.9217546 -32.21202347 198.98510946 -34.69897461 178.2746582 C-34.92476061 175.00244173 -34.98084161 171.74963461 -34.97045898 168.47021484 C-34.96788338 167.56743081 -34.96530777 166.66464678 -34.96265411 165.73450565 C-34.82458586 155.63968442 -33.43341102 145.79783893 -31.91772461 135.83325195 C-31.62415905 133.82813807 -31.3319003 131.8228325 -31.04084778 129.81735229 C-30.26973966 124.53075933 -29.48024965 119.24708061 -28.68613052 113.96390152 C-27.86846345 108.50601139 -27.06642501 103.04582238 -26.26220703 97.5859375 C-24.84842598 88.00523989 -23.41911149 78.42694181 -21.98212528 68.84969997 C-20.97076366 62.10434215 -19.97192086 55.3572553 -18.98293114 48.6085844 C-18.16254249 43.01105092 -17.33223839 37.41504861 -16.49438477 31.82009888 C-16.17533923 29.68418335 -15.85904387 27.54785501 -15.5456543 25.41110229 C-15.12383907 22.5475662 -14.68902397 19.68634231 -14.24975586 16.82543945 C-14.13469193 16.0270163 -14.01962799 15.22859314 -13.90107727 14.40597534 C-13.19096124 9.90109828 -12.19441633 6.18532606 -9.69897461 2.2746582 C-6.47603008 0.16293991 -3.80301903 0.01741056 0 0 Z " fill="#07b075" transform="translate(359.698974609375,71.725341796875)"/>
<path d="M0 0 C0.77183013 -0.00382555 1.54366025 -0.00765109 2.33887917 -0.01159257 C4.92130661 -0.0218991 7.50351074 -0.01793491 10.08595276 -0.01396179 C11.93900254 -0.01830955 13.79205052 -0.02349291 15.64509583 -0.02944946 C20.67605414 -0.04284346 25.70693736 -0.04341771 30.73791003 -0.04088616 C34.93780627 -0.03981678 39.13768729 -0.04469897 43.33758026 -0.04949158 C53.24541522 -0.06058805 63.15321225 -0.06102331 73.06105042 -0.05497742 C83.28291903 -0.04893583 93.50465006 -0.06125305 103.72649521 -0.08254749 C112.50284689 -0.10015849 121.27915475 -0.10616565 130.05552346 -0.10290974 C135.29716963 -0.10109603 140.53871764 -0.10374195 145.78034782 -0.11762428 C150.7092643 -0.1301899 155.63796613 -0.12827048 160.56687927 -0.11521339 C162.37526586 -0.11284535 164.18366749 -0.11559045 165.99203682 -0.12383652 C168.46190037 -0.13428643 170.93104133 -0.12621774 173.40087891 -0.11352539 C174.11538049 -0.12089968 174.82988207 -0.12827396 175.56603521 -0.13587171 C180.18476523 -0.08598584 183.35813466 0.79267535 187.26393127 3.26069641 C189.59789994 6.7616494 189.94269296 8.5806437 189.81080627 12.70210266 C188.79016236 17.47725814 185.69553049 20.83630412 182.65504456 24.54829407 C180.50713405 27.19228218 178.43653765 29.8952542 176.35328674 32.59028625 C174.55034963 34.91938968 172.73811661 37.24100599 170.92408752 39.56147766 C167.42576375 44.04396563 163.96335541 48.55301354 160.51393127 53.07319641 C159.97639221 53.77750793 159.43885315 54.48181946 158.88502502 55.20747375 C157.83794929 56.57951509 156.79091039 57.95158454 155.74391174 59.32368469 C151.93139588 64.31353966 148.09540947 69.28540009 144.26393127 74.26069641 C142.59697835 76.42714292 140.93045714 78.59392138 139.26393127 80.76069641 C138.4306058 81.84403579 137.59727248 82.92736913 136.76393127 84.01069641 C136.14518127 84.81507141 136.14518127 84.81507141 135.51393127 85.63569641 C81.76393127 155.51069641 81.76393127 155.51069641 80.51222229 157.13789368 C79.68455407 158.21387856 78.856917 159.28988741 78.02931213 160.36592102 C75.85956647 163.1868899 73.68917224 166.00735666 71.51783752 168.82710266 C71.06731018 169.41233704 70.61678284 169.99757141 70.15260315 170.60054016 C68.89951015 172.22826921 67.64618114 173.85581657 66.39283752 175.48335266 C64.66894435 177.73232156 62.95799529 179.98923437 61.26393127 182.26069641 C62.98411528 183.98088042 65.17895944 183.39053516 67.47317505 183.40414429 C68.59211403 183.40335121 68.59211403 183.40335121 69.73365784 183.40254211 C70.51581161 183.40601654 71.29796539 183.40949097 72.1038208 183.41307068 C73.8084415 183.4204415 75.5130719 183.42577979 77.21770477 183.42936134 C79.91603441 183.43650806 82.61418019 183.45216183 85.31245422 183.47070312 C92.98652084 183.52325123 100.66048949 183.5711418 108.33473206 183.58662415 C113.02394799 183.59670633 117.712706 183.62604047 122.40174103 183.66794395 C124.18945095 183.68025957 125.97722555 183.68537418 127.7649765 183.68314552 C130.26935633 183.68079231 132.77242409 183.70296035 135.27662659 183.73066711 C136.01448898 183.7240657 136.75235138 183.71746429 137.51257324 183.71066284 C142.36435187 183.798716 144.85841229 184.80800587 148.26393127 188.26069641 C152.45395933 196.64075251 148.27152605 210.6208485 146.86524963 219.5539093 C146.44877067 222.2151976 146.05386802 224.87912064 145.66041565 227.54389954 C145.39802751 229.25047761 145.13440015 230.95686573 144.86940002 232.66304016 C144.7536412 233.45266647 144.63788239 234.24229279 144.51861572 235.05584717 C143.82215987 239.36418606 143.03784218 242.75030538 140.26393127 246.26069641 C136.64319416 248.73612862 132.90599888 248.54639404 128.67935181 248.52812195 C127.52795524 248.53491862 127.52795524 248.53491862 126.35329813 248.54185259 C123.77925866 248.5545206 121.20543012 248.5528747 118.63136292 248.55122375 C116.78668953 248.55720745 114.94201865 248.56401262 113.09735107 248.57157898 C108.08500201 248.58926087 103.07272121 248.59393524 98.06034398 248.59521055 C93.87779977 248.59710876 89.69527149 248.60446526 85.5127334 248.61155474 C75.64666941 248.62784408 65.78064193 248.63272314 55.91456604 248.63130188 C45.7318582 248.6300998 35.5493621 248.65121355 25.36670786 248.68278921 C16.62775774 248.70892392 7.8888769 248.71967038 -0.85011202 248.71839106 C-6.07109903 248.71788067 -11.29189785 248.72360673 -16.51284599 248.74474716 C-21.42209342 248.76408269 -26.33097219 248.76428618 -31.24023247 248.7497139 C-33.04259274 248.74761897 -34.84497581 248.75236723 -36.64729691 248.76443481 C-39.10680227 248.77983692 -41.56502844 248.77061352 -44.02450562 248.75517273 C-44.73871121 248.76545986 -45.4529168 248.77574698 -46.18876499 248.78634584 C-50.96379042 248.72004008 -53.38075415 247.63789229 -56.73606873 244.26069641 C-58.61372328 240.50538731 -58.66794158 237.24889035 -57.73606873 233.26069641 C-54.85673029 228.24015503 -51.33271498 223.78323606 -47.73606873 219.26069641 C-46.84953939 218.12354214 -45.96409825 216.98553857 -45.07981873 215.84663391 C-43.28397666 213.54309813 -41.47498869 211.25066063 -39.65794373 208.96382141 C-36.44756263 204.91252194 -33.30808519 200.80832367 -30.17356873 196.69819641 C-29.62209167 195.97527405 -29.07061462 195.25235168 -28.50242615 194.50752258 C-27.41860448 193.08660488 -26.33486226 191.66562656 -25.25120544 190.24458313 C-23.08699137 187.41080878 -20.9119798 184.58550155 -18.73606873 181.76069641 C-14.89222278 176.76868869 -11.06161103 171.76674249 -7.23606873 166.76069641 C-2.61223846 160.71002293 2.02422772 154.66940233 6.67018127 148.63569641 C9.71000755 144.68392225 12.73668219 140.72210821 15.76393127 136.76069641 C19.58947358 131.75465034 23.42008533 126.75270413 27.26393127 121.76069641 C31.59855676 116.13058512 35.91883259 110.48963495 40.23219299 104.84321594 C43.01530317 101.20000499 45.80150611 97.55927672 48.59596252 93.92475891 C53.98226724 86.91365979 59.33186159 79.87869433 64.57643127 72.76069641 C65.05096741 72.11922668 65.52550354 71.47775696 66.01441956 70.81684875 C68.26034586 68.27845603 68.26034586 68.27845603 69.26393127 65.26069641 C68.21014786 65.25705078 67.15636444 65.25340515 66.07064819 65.24964905 C56.13862358 65.21270418 46.20690916 65.15493705 36.27512074 65.07679367 C31.16908293 65.03728827 26.06321838 65.00511479 20.95704651 64.98970032 C16.02906433 64.97455395 11.10155835 64.94014426 6.17378807 64.89238739 C4.29397916 64.87755275 2.41410226 64.8696542 0.534235 64.86881256 C-2.09959529 64.8664474 -4.73210473 64.83940501 -7.3657074 64.80659485 C-8.14254379 64.81162521 -8.91938019 64.81665558 -9.71975708 64.82183838 C-14.67103752 64.72643818 -17.26871687 63.81565889 -20.73606873 60.26069641 C-24.84148209 52.04986969 -20.66864031 38.34409498 -19.33738708 29.61567688 C-18.92163526 26.87294121 -18.52647291 24.12773647 -18.1325531 21.38179016 C-17.8701142 19.6250951 -17.6064846 17.86857742 -17.34153748 16.11225891 C-17.16789925 14.89030319 -17.16789925 14.89030319 -16.99075317 13.6436615 C-16.30822584 9.28914228 -15.62060205 5.75109279 -12.73606873 2.26069641 C-8.56051777 0.07177246 -4.61150468 -0.02431643 0 0 Z " fill="#07b075" transform="translate(816.7360687255859,71.73930358886719)"/>
<path d="M0 0 C4.5703125 0.49511719 4.5703125 0.49511719 6.40625 2.65234375 C10.44458777 11.08958516 12.79829248 19.94191124 15 29 C15.25007812 30.00804687 15.50015625 31.01609375 15.7578125 32.0546875 C22.47439993 64.69162641 12.39265727 100.89155925 -5.22192383 128.44677734 C-9.08872577 134.3099419 -13.34580048 139.73840087 -18 145 C-18.44037598 145.51127441 -18.88075195 146.02254883 -19.33447266 146.54931641 C-36.83363222 166.82399485 -59.6393702 181.55345422 -85.25 189.375 C-86.02875488 189.61371826 -86.80750977 189.85243652 -87.60986328 190.09838867 C-102.50724579 194.39003929 -117.16043761 194.29651507 -132.53515625 194.265625 C-134.90596049 194.26697416 -137.27676445 194.26891678 -139.64756775 194.27142334 C-144.5905117 194.27435761 -149.53338292 194.27012835 -154.47631836 194.26074219 C-160.81488033 194.24929225 -167.15327393 194.25595278 -173.49182987 194.26788712 C-178.3756386 194.27510369 -183.25940717 194.27281968 -188.14321709 194.26763153 C-190.48163307 194.26629739 -192.8200527 194.26793452 -195.15846443 194.27259064 C-198.41571919 194.27765859 -201.67269753 194.26994419 -204.92993164 194.25878906 C-205.89565598 194.26283752 -206.86138031 194.26688599 -207.85636902 194.27105713 C-209.18690811 194.26259766 -209.18690811 194.26259766 -210.54432678 194.25396729 C-211.31280976 194.25321323 -212.08129274 194.25245918 -212.87306309 194.25168228 C-215.34963776 193.95862706 -216.92129991 193.37730328 -219 192 C-220.04296875 188.8046875 -220.04296875 188.8046875 -220 185 C-218.53317354 182.3821855 -217.18990054 180.40541088 -215.3125 178.125 C-214.28329163 176.80222994 -213.25601624 175.47795411 -212.23046875 174.15234375 C-211.69470215 173.47026855 -211.15893555 172.78819336 -210.60693359 172.08544922 C-207.99817682 168.69985208 -205.56744756 165.19394792 -203.125 161.6875 C-197.3710415 153.493063 -191.51586056 145.37420671 -185.64111328 137.26611328 C-182.92351827 133.513552 -180.21205527 129.75656581 -177.5 126 C-176.41669638 124.49997854 -175.33336304 122.99997854 -174.25 121.5 C-173.71375 120.7575 -173.1775 120.015 -172.625 119.25 C-171 117 -169.375 114.75 -167.75 112.5 C-167.2130249 111.75645264 -166.6760498 111.01290527 -166.12280273 110.24682617 C-165.04696023 108.75728525 -163.97095298 107.2678633 -162.89477539 105.77856445 C-160.07042142 101.86953518 -157.24954718 97.95805486 -154.43359375 94.04296875 C-153.84835938 93.23021484 -153.263125 92.41746094 -152.66015625 91.58007812 C-151.54320723 90.02876004 -150.42725953 88.47672031 -149.3125 86.92382812 C-148.32022071 85.54650407 -147.32176141 84.17360205 -146.31591797 82.80615234 C-145.17842052 81.24488961 -144.08663726 79.65051102 -143.00390625 78.05078125 C-141 76 -141 76 -138.07421875 74.94921875 C-134.05172551 75.015664 -132.79692031 76.16219028 -129.8125 78.8125 C-128.85988281 79.64394531 -127.90726562 80.47539062 -126.92578125 81.33203125 C-125.96027344 82.21246094 -124.99476563 83.09289062 -124 84 C-123.08605469 84.82886719 -122.17210937 85.65773438 -121.23046875 86.51171875 C-119.39674367 88.18279582 -117.56736723 89.85865624 -115.7421875 91.5390625 C-112.23770955 94.68410682 -108.57915769 97.61002875 -104.90625 100.5546875 C-102.72761355 102.38778753 -100.65466878 104.23743965 -98.59375 106.1953125 C-97.7282251 107.01636475 -97.7282251 107.01636475 -96.84521484 107.85400391 C-95.7225185 108.92826147 -94.60781807 110.01095645 -93.50244141 111.10302734 C-90.4487525 114.02648681 -88.27874399 115.68422554 -84 116 C-82.92685547 114.47246094 -82.92685547 114.47246094 -81.83203125 112.9140625 C-74.84108473 102.97805952 -67.76923426 93.10406345 -60.64111328 83.26611328 C-57.92351827 79.513552 -55.21205527 75.75656581 -52.5 72 C-51.41669638 70.49997854 -50.33336304 68.99997854 -49.25 67.5 C-48.71375 66.7575 -48.1775 66.015 -47.625 65.25 C-41.66666667 57 -35.70833333 48.75 -29.75 40.5 C-29.2132666 39.7567749 -28.6765332 39.0135498 -28.12353516 38.24780273 C-27.04529875 36.75497228 -25.96684985 35.26229528 -24.88818359 33.76977539 C-22.10006258 29.91134303 -19.31621372 26.04993089 -16.5390625 22.18359375 C-5.57205281 6.92960749 -5.57205281 6.92960749 0 0 Z " fill="#07b075" transform="translate(291,126)"/>
<path d="M0 0 C0.92141785 -0.00350464 1.84283569 -0.00700928 2.79217529 -0.01062012 C5.82645296 -0.01939212 8.86049549 -0.01359985 11.89477539 -0.00683594 C14.02120508 -0.00818492 16.14763447 -0.0101274 18.27406311 -0.01263428 C22.73172949 -0.0155803 27.18931563 -0.01130848 31.64697266 -0.00195312 C37.31865642 0.00937851 42.99014954 0.00291868 48.66182613 -0.00909805 C53.05716848 -0.01638434 57.45246695 -0.01399686 61.84781075 -0.00884247 C63.93627508 -0.00752134 66.02474359 -0.00909888 68.11320305 -0.01380157 C83.02507384 -0.03998904 98.06985116 0.01596555 112.42993164 4.57128906 C113.48071899 4.89069458 113.48071899 4.89069458 114.55273438 5.21655273 C120.18380842 6.99263183 125.43520341 9.30268062 130.55493164 12.25878906 C129.9227521 16.97463065 127.95887782 20.90874049 125.86352539 25.11816406 C125.48687241 25.88668701 125.11021942 26.65520996 124.72215271 27.44702148 C123.48417121 29.97023317 122.2382399 32.48943391 120.99243164 35.00878906 C120.12411061 36.77572472 119.25644246 38.54298136 118.3894043 40.31054688 C116.62394149 43.90892209 114.85610423 47.50611526 113.08666992 51.10253906 C109.82877658 57.73040747 106.60660959 64.37541429 103.39041138 71.02359009 C101.78790095 74.3357912 100.18303884 77.64685242 98.57836914 80.95800781 C98.2587471 81.61766037 97.93912506 82.27731293 97.6098175 82.95695496 C93.4305783 91.5811773 89.2425706 100.20114316 85.05493164 108.82128906 C84.67496033 109.60346802 84.29498901 110.38564697 83.90350342 111.19152832 C81.78747388 115.54736016 79.67128043 119.90311233 77.55493164 124.25878906 C71.88008075 123.61660424 69.39138742 122.82017456 65.30493164 118.75878906 C61.66030153 115.25357103 58.00416891 111.91817888 54.05493164 108.75878906 C50.2703283 105.70530228 46.63285627 102.55210605 43.05493164 99.25878906 C39.30604042 95.83215211 35.54005551 92.43507462 31.67993164 89.13378906 C30.81625977 88.38871094 29.95258789 87.64363281 29.06274414 86.87597656 C26.20307167 85.03188871 24.86826001 85.115872 21.55493164 85.25878906 C14.18423643 99.01479242 7.20173943 112.94127957 0.35131836 126.96289062 C-1.30836434 130.35983394 -2.9720497 133.75479221 -4.63647461 137.14941406 C-11.04366205 150.22942179 -17.38061257 163.34177882 -23.67260742 176.47753906 C-27.20341342 183.84667973 -30.76626311 191.20012254 -34.33886719 198.54907227 C-35.40965473 200.75201412 -36.47915679 202.95557717 -37.54858398 205.15917969 C-38.90878801 207.961554 -40.27419231 210.76129253 -41.64379883 213.55908203 C-42.76782027 215.85704701 -43.86786036 218.1611742 -44.95336914 220.47802734 C-45.60088135 221.84096924 -45.60088135 221.84096924 -46.26147461 223.23144531 C-46.61798096 223.99851807 -46.9744873 224.76559082 -47.34179688 225.5559082 C-48.44506836 227.25878906 -48.44506836 227.25878906 -51.44506836 228.25878906 C-51.56529353 222.49622517 -51.14662682 217.0723212 -50.29510498 211.37817383 C-50.17133712 210.51943696 -50.04756926 209.66070009 -49.92005086 208.7759409 C-49.50645162 205.91653452 -49.08468142 203.05839671 -48.6628418 200.20019531 C-48.36346326 198.14312222 -48.0645505 196.0859813 -47.7660675 194.02877808 C-46.95543824 188.45366416 -46.13728047 182.87968083 -45.31699276 177.30598068 C-44.80452549 173.82184745 -44.29359154 170.33749284 -43.78318024 166.85305786 C-42.00165204 154.69214486 -40.2136769 142.5321982 -38.42016602 130.37304688 C-36.74955753 119.04584185 -35.09363211 107.71655503 -33.44439864 96.38621998 C-32.02655248 86.65038095 -30.59808393 76.91613834 -29.16144395 67.18305492 C-28.30412013 61.37338278 -27.45117207 55.56314987 -26.60906219 49.75125122 C-25.81686215 44.28619002 -25.01145895 38.82323572 -24.19594383 33.3616066 C-23.89930836 31.3596486 -23.60736668 29.3569885 -23.32052803 27.35360336 C-22.92745123 24.6134649 -22.51733061 21.8763927 -22.10296631 19.1394043 C-21.93951426 17.95689512 -21.93951426 17.95689512 -21.77276015 16.75049686 C-20.95633045 11.52230959 -19.54845695 6.62368621 -16.44506836 2.25878906 C-11.19448089 -0.20695069 -5.70391122 -0.02695411 0 0 Z " fill="#07b075" transform="translate(122.445068359375,71.7412109375)"/>
</svg>
